<?xml version="1.0" standalone="no"?><!DOCTYPE svg PUBLIC "-//W3C//DTD SVG 1.1//EN" "http://www.w3.org/Graphics/SVG/1.1/DTD/svg11.dtd"><svg t="1634190065758" class="icon" viewBox="0 0 1056 1024" version="1.1" xmlns="http://www.w3.org/2000/svg" p-id="5657" xmlns:xlink="http://www.w3.org/1999/xlink" width="132" height="128"><defs><style type="text/css"></style></defs><path d="M868.8 758.4l-102.4-102.4c35.2-51.2 54.4-112 54.4-179.2 0-172.8-140.8-316.8-320-316.8-172.8 0-316.8 140.8-316.8 316.8 0 172.8 140.8 316.8 320 316.8 67.2 0 124.8-19.2 176-51.2l105.6 105.6c22.4 22.4 60.8 22.4 86.4 0 22.4-28.8 22.4-67.2-3.2-89.6z m-585.6-284.8c0-118.4 99.2-217.6 220.8-217.6s220.8 96 220.8 217.6-99.2 217.6-220.8 217.6c-124.8 3.2-220.8-96-220.8-217.6z" p-id="5658" fill="#1296db"></path></svg>